<svg id="Capa_1" enable-background="new 0 0 512.008 512.008" height="512" viewBox="0 0 512.008 512.008" width="512" xmlns="http://www.w3.org/2000/svg"><g><g><path d="m30.018 26.825c154.737 43.876 319.085 41.797 472.912-6.237 4.502-1.406 9.074 1.962 9.074 6.679l.001 365.283-13.672 7.645 13.672 16v52.253c0 4.416-4.041 7.744-8.369 6.865-86.288-17.523-166.96-23.968-247.632-24.216-73.735.227-147.469 5.631-225.492 19.938-1.192.219-15.495-36.423-15.495-36.423s-3.567-299.517-.565-383.753c0 0 14.353-24.378 15.566-24.034z" fill="#ecdeff"/><g><path d="m30.018 468.445-.002-52.251 15.358-10.745-15.359-12.9-.011-365.282c0-.149.005-.296.014-.442-7-1.985-13.981-4.064-20.94-6.237-4.503-1.406-9.074 1.962-9.074 6.679l.012 365.283 15.359 12.9-15.358 10.744.002 52.251c0 4.415 4.041 7.743 8.369 6.865 7.415-1.506 14.789-2.93 22.124-4.275-.318-.797-.494-1.67-.494-2.59z" fill="#d0beed"/></g><path d="m64.001 359.022c.152-10.272-8.143-18.53-18.251-18.53-6.634 0-12.408 3.528-15.603 8.777l-13.172 57.662 13.041 9.263h33.986l14.318-32.001z" fill="#bbec6c"/><g><path d="m128.502 416.194h-64.499v-185.103c0-3.811 3.089-6.9 6.9-6.9h57.599z" fill="#ffd15b"/></g><g><g><g><path d="m115.509 391.92h-15.67c-4.267 0-7.727-3.459-7.727-7.727s3.459-7.727 7.727-7.727h15.67c4.267 0 7.727 3.459 7.727 7.727s-3.46 7.727-7.727 7.727z" fill="#f7f0ff"/></g><g><path d="m115.509 263.918h-15.67c-4.267 0-7.727-3.459-7.727-7.727 0-4.267 3.459-7.727 7.727-7.727h15.67c4.267 0 7.727 3.459 7.727 7.727-.001 4.268-3.46 7.727-7.727 7.727z" fill="#f7f0ff"/></g><g><path d="m115.509 295.919h-15.67c-4.267 0-7.727-3.459-7.727-7.727 0-4.267 3.459-7.727 7.727-7.727h15.67c4.267 0 7.727 3.459 7.727 7.727-.001 4.268-3.46 7.727-7.727 7.727z" fill="#f7f0ff"/></g><g><path d="m115.509 327.919h-15.67c-4.267 0-7.727-3.459-7.727-7.727s3.459-7.727 7.727-7.727h15.67c4.267 0 7.727 3.459 7.727 7.727s-3.46 7.727-7.727 7.727z" fill="#f7f0ff"/></g><g><path d="m115.509 359.92h-15.67c-4.267 0-7.727-3.459-7.727-7.727 0-4.267 3.459-7.727 7.727-7.727h15.67c4.267 0 7.727 3.459 7.727 7.727-.001 4.268-3.46 7.727-7.727 7.727z" fill="#f7f0ff"/></g></g></g><path d="m178.133 112.101c-8.113-24.231-41.608-26.412-52.834-3.466-10.178-5.277-22.438-.925-27.353 8.817-1.372 2.72-4.231 4.269-7.257 3.923-1.658-.19-3.36-.238-5.092-.131-14.238.875-25.815 12.409-26.736 26.644-1.078 16.657 12.114 30.504 28.54 30.504 4.581 0 8.911-1.077 12.75-2.992 3.682-1.837 8.072-.175 9.65 3.625 4.3 10.358 14.513 17.643 26.427 17.643 13.02 0 24.008-8.7 27.468-20.604 23.049 15.3 54.437-1.125 54.437-29.238-.001-21.288-18.825-37.704-40-34.725z" fill="#60b7ff"/><path d="m448.009 358.746c0-10.081 8.172-18.253 18.253-18.253 8.845 0 16.162 6.271 17.874 14.533.483 2.329 2.082 4.22 4.275 5.143 6.369 2.679 10.818 8.843 11.157 15.935.105 2.196 1.308 4.163 3.129 5.394 4.04 2.732 7.281 6.558 9.297 11.052v23.645h-47.986c-16.736-59.999-15.999-56.872-15.999-57.449z" fill="#bbec6c"/><g><path d="m464.009 416.194h-75.999v-288.004h68.999c3.866 0 7 3.134 7 7z" fill="#fd4852"/><g><g><g><path d="m425.009 192.191h-36.999v-32.001h36.999c3.866 0 7 3.134 7 7v18.001c0 3.866-3.134 7-7 7z" fill="#ecdeff"/></g><g><path d="m425.009 256.192h-36.999v-32.001h36.999c3.866 0 7 3.134 7 7v18.001c0 3.866-3.134 7-7 7z" fill="#ecdeff"/></g><g><path d="m425.009 320.193h-36.999v-32.001h36.999c3.866 0 7 3.134 7 7v18.001c0 3.866-3.134 7-7 7z" fill="#ecdeff"/></g><g><path d="m425.009 384.194h-36.999v-32h36.999c3.866 0 7 3.134 7 7v18c0 3.866-3.134 7-7 7z" fill="#ecdeff"/></g></g></g></g><g><path d="m379.404 512.008h-225.099c-11.379 0-20.604-9.225-20.604-20.604v-470.8c0-11.379 9.225-20.604 20.604-20.604h225.099c11.379 0 20.604 9.225 20.604 20.604v470.8c0 11.379-9.224 20.604-20.604 20.604z" fill="#7883a0"/><path d="m144.004 491.404v-470.8c0-11.379 9.225-20.604 20.604-20.604h-32.001c-11.379 0-20.604 9.225-20.604 20.604v470.8c0 11.379 9.225 20.604 20.604 20.604h32.001c-11.379 0-20.604-9.225-20.604-20.604z" fill="#697491"/><path d="m360.796 32.001h-37.59c-2.032 0-3.963.883-5.293 2.419l-9.717 11.225c-1.33 1.536-3.261 2.419-5.293 2.419h-93.796c-2.032 0-3.963-.883-5.293-2.419l-9.717-11.225c-1.33-1.536-3.261-2.419-5.293-2.419h-37.59c-3.983 0-7.211 3.229-7.211 7.211v49.652l16 42.99-16 51.388v24.949l16 96.002-16 96.002v40.601c0 3.983 3.229 7.211 7.211 7.211h209.581c3.983 0 7.211-3.229 7.211-7.211v-40.601l-14.706-16v-252.34l14.706-19.664v-72.979c.002-3.983-3.227-7.211-7.21-7.211z" fill="#f7f0ff"/></g><g><path d="m176.005 400.194h-32.001v-192.003h32.001l20.372 92.752z" fill="#ffe26f"/></g><path d="m190.304 95.268c-3.187-6.233-8.353-10.718-14.299-13.2l-16 23.544v54.579l14.889 9.385c1.775-3.081 5.481-4.394 8.768-3.035 22.112 9.145 48.345-6.787 48.345-32.488 0-19.725-16.163-35.269-35.384-35.072-2.647.026-5.115-1.357-6.319-3.713z" fill="#8ac9fe"/><path d="m176.005 82.069c-10.426-4.353-23.248-2.547-32 6.795v94.378c12.496 2.713 24.838-3.165 30.889-13.667.314-.545.689-1.035 1.111-1.465z" fill="#60b7ff"/><g><g><path d="m296.007 400.194h-90.002l-4.956-233.004c0-3.866 3.134-7 7-7h87.958l16.004 111.908z" fill="#e0cff9"/></g></g><path d="m213.005 160.19h-30c-3.866 0-7 3.134-7 7v233.004h30v-233.004c0-3.866 3.134-7 7-7z" fill="#d0beed"/><g><path d="m368.008 400.194h-29.996l-13.501-281.004c0-3.866 3.134-7 7-7h36.497v32.001l-10.065 16 10.065 16v32.001l-10.065 16 10.065 16v32.001l-10.065 16 10.065 16v32l-10.065 16 10.065 16z" fill="#fd6470"/><path d="m345.012 112.19h-42.002c-3.866 0-7 3.134-7 7v281.005h42.002v-281.005c0-3.866 3.134-7 7-7z" fill="#fd4852"/><g><g><g><path d="m368.008 176.191h-29.996c-3.866 0-7-3.134-7-7v-18.001c0-3.866 3.134-7 7-7h29.996z" fill="#f7f0ff"/></g></g></g><path d="m338.012 144.19h-3.001c-3.866 0-7 3.134-7 7v18.001c0 3.866 3.134 7 7 7h3.001z" fill="#ecdeff"/><path d="m368.008 368.194h-29.996c-3.866 0-7-3.134-7-7v-18.001c0-3.866 3.134-7 7-7h29.996z" fill="#f7f0ff"/><path d="m338.012 336.193h-3.001c-3.866 0-7 3.134-7 7v18.001c0 3.866 3.134 7 7 7h3.001z" fill="#ecdeff"/><path d="m368.008 304.193h-29.996c-3.866 0-7-3.134-7-7v-18c0-3.866 3.134-7 7-7h29.996z" fill="#f7f0ff"/><path d="m338.012 272.192h-3.001c-3.866 0-7 3.134-7 7v18.001c0 3.866 3.134 7 7 7h3.001z" fill="#ecdeff"/><path d="m368.008 240.192h-29.996c-3.866 0-7-3.134-7-7v-18.001c0-3.866 3.134-7 7-7h29.996z" fill="#f7f0ff"/><path d="m338.012 208.191h-3.001c-3.866 0-7 3.134-7 7v18.001c0 3.866 3.134 7 7 7h3.001z" fill="#ecdeff"/></g><g><g><g><g><g><path d="m209.295 210.989h-.52c-4.267 0-7.727-3.459-7.727-7.727 0-10.3 15.973-10.314 15.973 0 .001 4.268-3.459 7.727-7.726 7.727z" fill="#f7f0ff"/></g><g><path d="m227.858 203.263c0-10.314 16.296-10.314 16.296 0-.001 10.314-16.296 10.314-16.296 0z" fill="#f7f0ff"/></g><g><path d="m263.237 210.989h-.521c-4.267 0-7.727-3.459-7.727-7.727 0-4.267 3.459-7.727 7.727-7.727h.521c4.267 0 7.727 3.459 7.727 7.727-.001 4.268-3.46 7.727-7.727 7.727z" fill="#f7f0ff"/></g></g><g><g><path d="m209.295 249.454h-.52c-4.267 0-7.727-3.459-7.727-7.727 0-4.267 3.459-7.727 7.727-7.727h.52c4.267 0 7.727 3.459 7.727 7.727s-3.46 7.727-7.727 7.727z" fill="#f7f0ff"/></g><g><path d="m227.858 241.728c0-10.314 16.296-10.314 16.296 0-.001 10.314-16.296 10.314-16.296 0z" fill="#f7f0ff"/></g><g><path d="m263.237 249.454h-.521c-4.267 0-7.727-3.459-7.727-7.727 0-4.267 3.459-7.727 7.727-7.727h.521c4.267 0 7.727 3.459 7.727 7.727-.001 4.268-3.46 7.727-7.727 7.727z" fill="#f7f0ff"/></g></g><g><g><path d="m209.295 287.919h-.52c-4.267 0-7.727-3.459-7.727-7.727s3.459-7.727 7.727-7.727h.52c4.267 0 7.727 3.459 7.727 7.727s-3.46 7.727-7.727 7.727z" fill="#f7f0ff"/></g><g><path d="m227.858 280.192c0-10.314 16.296-10.314 16.296 0-.001 10.315-16.296 10.314-16.296 0z" fill="#f7f0ff"/></g><g><path d="m263.237 287.919h-.521c-4.267 0-7.727-3.459-7.727-7.727s3.459-7.727 7.727-7.727h.521c4.267 0 7.727 3.459 7.727 7.727s-3.46 7.727-7.727 7.727z" fill="#f7f0ff"/></g></g><g><g><path d="m209.295 326.384h-.52c-4.267 0-7.727-3.459-7.727-7.727 0-4.267 3.459-7.727 7.727-7.727h.52c4.267 0 7.727 3.459 7.727 7.727 0 4.267-3.46 7.727-7.727 7.727z" fill="#f7f0ff"/></g><g><path d="m227.858 318.657c0-10.314 16.296-10.314 16.296 0-.001 10.314-16.296 10.314-16.296 0z" fill="#f7f0ff"/></g><g><path d="m263.237 326.384h-.521c-4.267 0-7.727-3.459-7.727-7.727 0-4.267 3.459-7.727 7.727-7.727h.521c4.267 0 7.727 3.459 7.727 7.727-.001 4.267-3.46 7.727-7.727 7.727z" fill="#f7f0ff"/></g></g><g><g><path d="m201.048 357.122c0-4.267 3.459-7.727 7.727-7.727h.52c4.267 0 7.727 3.459 7.727 7.727 0 10.299-15.974 10.313-15.974 0z" fill="#f7f0ff"/></g><g><path d="m227.858 357.122c0-10.314 16.296-10.314 16.296 0-.001 10.314-16.296 10.314-16.296 0z" fill="#f7f0ff"/></g><g><path d="m263.237 364.848h-.521c-4.267 0-7.727-3.459-7.727-7.727 0-4.267 3.459-7.727 7.727-7.727h.521c4.267 0 7.727 3.459 7.727 7.727-.001 4.268-3.46 7.727-7.727 7.727z" fill="#f7f0ff"/></g></g></g></g></g><path d="m280.007 470.962h-48c-4.267 0-7.726 3.459-7.726 7.726s3.459 7.726 7.726 7.726h48c4.267 0 7.726-3.459 7.726-7.726s-3.459-7.726-7.726-7.726z" fill="#f7f0ff"/><path d="m30.015 349.49c-.997 1.692-1.729 3.556-2.139 5.535-.483 2.329-2.082 4.22-4.275 5.143-6.369 2.68-10.818 8.843-11.157 15.935-.105 2.196-1.308 4.163-3.129 5.395-3.518 2.379-6.43 5.587-8.455 9.344-.554 1.027-.842 2.178-.842 3.345v22.007h30z" fill="#99da2b"/></g></g></svg>