<svg id="Capa_1" enable-background="new 0 0 512 512" height="512" viewBox="0 0 512 512" width="512" xmlns="http://www.w3.org/2000/svg"><g><g><path d="m76 331h-61c-8.291 0-15-6.709-15-15v-270c0-8.291 6.709-15 15-15h361c8.291 0 15 6.709 15 15v60c0 8.291-6.709 15-15 15h-225v75c0 8.291-6.709 15-15 15h-45v105c0 8.291-6.709 15-15 15z" fill="#ffcb66"/></g><path d="m376 31h-120v90h120c8.291 0 15-6.709 15-15v-60c0-8.291-6.709-15-15-15z" fill="#ffa54d"/><g><g><g><g><path d="m497 391h-61c-8.291 0-15-6.709-15-15v-165h-285c-8.291 0-15-6.709-15-15v-90c0-8.291 6.709-15 15-15h361c8.291 0 15 6.709 15 15v270c0 8.291-6.709 15-15 15z" fill="#e6f2f2"/></g></g></g></g><path d="m497 91h-241v120h165v165c0 8.291 6.709 15 15 15h61c8.291 0 15-6.709 15-15v-270c0-8.291-6.709-15-15-15z" fill="#cfe6e6"/><g><g><g><g><path d="m436 181h-360c-8.401 0-15 6.599-15 15v270c0 4.2 1.8 7.8 4.2 10.8l100.8-40.8h120l160.8 40.8c2.4-3 4.2-6.6 4.2-10.8v-270c0-8.401-6.599-15-15-15z" fill="#66b3ff"/></g></g></g></g><path d="m436 181h-180v255h30l160.8 40.8c2.4-3 4.2-6.6 4.2-10.8v-270c0-8.401-6.599-15-15-15z" fill="#4d88ff"/><g id="Gallery_1_"><path d="m446.8 476.8c-3 2.4-6.6 4.2-10.8 4.2h-360c-4.2 0-7.8-1.8-10.8-4.2l90.193-90.193c5.858-5.858 15.355-5.858 21.213 0l8.787 8.787c5.858 5.858 15.355 5.858 21.213 0l68.787-68.787c5.858-5.858 15.355-5.858 21.213 0z" fill="#ade65c"/><g><path d="m166 331c-24.814 0-45-20.186-45-45s20.186-45 45-45 45 20.186 45 45-20.186 45-45 45z" fill="#ffcb66"/></g></g><path d="m275.393 326.605-19.393 19.393v135.002h180c4.2 0 7.8-1.8 10.8-4.2l-150.193-150.195c-5.859-5.857-15.355-5.857-21.214 0z" fill="#7acc52"/></g></svg>