<svg id="Capa_1" enable-background="new 0 0 511.969 511.969" height="512" viewBox="0 0 511.969 511.969" width="512" xmlns="http://www.w3.org/2000/svg"><g><path d="m376.095 456.827c0 15.236-6.17 29.018-16.152 38.99-9.971 9.982-23.765 16.152-38.99 16.152h-137.995c-30.389 0-55.019-24.558-55.142-54.916v-.227c0-15.225 6.17-29.008 16.152-38.99 9.971-9.972 23.765-16.142 38.99-16.142h137.995c30.461.001 55.142 24.683 55.142 55.133z" fill="#f9f6f9"/><path d="m255.994 401.695v55.359h-128.178v-.227c0-15.225 6.17-29.008 16.152-38.99 9.971-9.972 23.765-16.142 38.99-16.142z" fill="#dddaec"/><path d="m434.317 178.328c0-98.488-79.84-178.328-178.327-178.328-98.116 0-177.415 78.531-178.321 176.643-.625 67.692 36.471 126.772 91.544 157.505 30.875 17.23 50.078 49.747 50.078 85.104v1.106c0 20.268 16.43 36.698 36.698 36.698 20.268 0 36.698-16.43 36.698-36.698v-1.102c0-35.529 19.514-67.945 50.493-85.341 54.388-30.54 91.137-88.77 91.137-155.587z" fill="#9dc6fb"/><path d="m271.549 453.596c-4.718 2.225-10.002 3.461-15.565 3.461-20.263 0-36.693-16.43-36.693-36.693v-1.113c0-35.354-19.212-67.875-50.084-85.098-55.07-30.739-92.165-89.816-91.547-157.505.907-98.118 80.205-176.644 178.324-176.644 5.223 0 10.383.227 15.493.669-90.774 7.829-161.821 83.131-162.677 175.976-.618 67.689 36.477 126.767 91.547 157.505 30.873 17.224 50.074 49.744 50.074 85.098v1.113c0 14.699 8.643 27.38 21.128 33.231z" fill="#80b4fb"/><g><circle cx="255.989" cy="178.328" fill="#f1f4f6" r="134.291"/></g><g><path d="m279.914 310.503c-7.767 1.391-15.761 2.122-23.919 2.122-74.169 0-134.297-60.128-134.297-134.297 0-74.158 60.128-134.286 134.297-134.286 8.159 0 16.152.731 23.919 2.122-62.765 11.28-110.388 66.165-110.388 132.164.001 66.01 47.623 120.895 110.388 132.175z" fill="#f9f6f9"/></g><g><path d="m293.931 231.441h-9.417v-62.027c0-8.105-6.57-14.675-14.675-14.675h-51.783c-8.466 0-15.329 6.863-15.329 15.329 0 8.466 6.863 15.329 15.329 15.329h13.264v46.043h-13.264c-8.466 0-15.329 6.863-15.329 15.329 0 8.466 6.863 15.329 15.329 15.329h75.875c8.466 0 15.329-6.863 15.329-15.329 0-8.465-6.863-15.328-15.329-15.328z" fill="#9dc6fb"/><path d="m248.783 185.396v46.036h-13.268c-8.468 0-15.328 6.871-15.328 15.338 0 4.223 1.72 8.056 4.491 10.837 2.771 2.771 6.603 4.491 10.837 4.491h-17.461c-4.234 0-8.066-1.72-10.837-4.491-2.781-2.781-4.491-6.613-4.491-10.837 0-8.468 6.861-15.338 15.328-15.338h13.268v-46.036h-13.268c-4.234 0-8.066-1.71-10.837-4.491-2.781-2.771-4.491-6.603-4.491-10.837 0-8.468 6.861-15.328 15.328-15.328h17.461c-8.468 0-15.328 6.861-15.328 15.328 0 4.234 1.72 8.066 4.491 10.837 2.771 2.781 6.603 4.491 10.837 4.491z" fill="#80b4fb"/><circle cx="257.917" cy="104.639" fill="#9dc6fb" r="26.597"/><path d="m267.035 129.63c-2.843 1.04-5.913 1.607-9.117 1.607-14.69 0-26.598-11.908-26.598-26.598 0-14.689 11.908-26.598 26.598-26.598 3.204 0 6.273.567 9.117 1.607-10.198 3.719-17.481 13.505-17.481 24.991-.001 11.486 7.282 21.272 17.481 24.991z" fill="#80b4fb"/></g></g></svg>