<svg id="Layer_1" height="512" viewBox="0 0 512 512" width="512" xmlns="http://www.w3.org/2000/svg"><g><g><path d="m268.234 194.403c-1.983 1.905-5.164 1.842-7.069-.141l-46.014-47.89c-1.905-1.983-1.842-5.165.141-7.07l32.792-31.506c1.983-1.905 5.165-1.842 7.07.141l46.013 47.89c1.905 1.983 1.842 5.165-.142 7.07z" fill="#9bbde4"/></g><g><path d="m264.771 200.792c-2.711 0-5.34-1.117-7.212-3.065l-46.014-47.89c-1.847-1.922-2.834-4.454-2.781-7.128.054-2.675 1.142-5.165 3.063-7.012l32.792-31.506c1.868-1.794 4.328-2.783 6.927-2.783 2.712 0 5.34 1.118 7.212 3.065l46.014 47.89c1.847 1.922 2.835 4.454 2.781 7.128s-1.142 5.165-3.064 7.012l-32.791 31.505c-1.868 1.795-4.328 2.784-6.927 2.784zm-13.223-89.39-32.792 31.506 46.014 47.89.001-.006c.006 0 .011-.001.012-.001l32.778-31.499z" fill="#426db5"/></g><path d="m166.558 104.332c-73.335 0-132.784 59.448-132.784 132.784v153.612h265.568v-153.612c0-73.336-59.448-132.784-132.784-132.784z" fill="#d9e9f7"/><path d="m299.342 237.115v153.61h-29v-153.61c0-68.431-51.771-124.771-118.28-131.99 4.76-.521 9.601-.79 14.5-.79 73.33 0 132.78 59.45 132.78 132.78z" fill="#9bbde4"/><circle cx="166.559" cy="247.529" fill="#d9e9f7" r="90.935"/><path d="m257.494 247.531c0 50.22-40.711 90.94-90.931 90.94-4.41 0-8.76-.311-13-.931 44.061-6.3 77.931-44.2 77.931-90.01 0-45.811-33.87-83.71-77.931-90.01 4.24-.62 8.59-.931 13-.931 50.22.002 90.931 40.722 90.931 90.942z" fill="#9bbde4"/><circle cx="166.558" cy="247.528" fill="#d9e9f7" r="30.325"/><path d="m196.883 247.525c0 16.75-13.569 30.33-30.319 30.33-2.771 0-5.45-.369-8-1.08 12.87-3.5 22.319-15.27 22.319-29.25 0-13.97-9.449-25.74-22.319-29.25 2.55-.7 5.229-1.07 8-1.07 16.749 0 30.319 13.58 30.319 30.32z" fill="#9bbde4"/><path d="m299.34 335.46h160.44v55.271h-160.44z" fill="#d9e9f7"/><path d="m459.78 395.73h-160.44c-2.762 0-5-2.238-5-5v-55.27c0-2.762 2.238-5 5-5h160.44c2.762 0 5 2.238 5 5v55.271c0 2.761-2.238 4.999-5 4.999zm-155.44-10h150.44v-45.27h-150.44z" fill="#426db5"/><g><g><path d="m443.46 370.58v20.15h-10v-20.15c0-2.771 2.23-5 5-5 2.76 0 5 2.23 5 5z" fill="#426db5"/></g></g><g><g><path d="m412.99 358.39v32.341h-10v-32.341c0-2.76 2.229-5 5-5 2.76 0 5 2.24 5 5z" fill="#426db5"/></g></g><g><g><path d="m382.53 370.58v20.15h-10v-20.15c0-2.771 2.239-5 5-5 2.76 0 5 2.23 5 5z" fill="#426db5"/></g></g><g><g><path d="m352.07 358.39v32.341h-10v-32.341c0-2.76 2.239-5 5-5 2.76 0 5 2.24 5 5z" fill="#426db5"/></g></g><g><g><path d="m321.6 370.58v20.15h-10v-20.15c0-2.771 2.24-5 5-5s5 2.23 5 5z" fill="#426db5"/></g></g><path d="m459.777 335.455h18.449v72.213h-18.449z" fill="#9bbde4"/><g fill="#426db5"><path d="m478.227 412.668h-18.449c-2.762 0-5-2.238-5-5v-72.213c0-2.762 2.238-5 5-5h18.449c2.762 0 5 2.238 5 5v72.213c0 2.762-2.239 5-5 5zm-13.45-10h8.449v-62.213h-8.449z"/><path d="m299.342 395.729h-265.569c-2.761 0-5-2.238-5-5v-153.613c0-75.975 61.81-137.784 137.784-137.784s137.784 61.81 137.784 137.784v153.612c.001 2.762-2.237 5.001-4.999 5.001zm-260.569-10h255.568v-148.613c0-70.46-57.324-127.784-127.784-127.784s-127.784 57.324-127.784 127.784z"/><path d="m166.559 343.465c-52.898 0-95.935-43.036-95.935-95.936 0-52.899 43.036-95.936 95.935-95.936s95.936 43.037 95.936 95.936c-.001 52.9-43.037 95.936-95.936 95.936zm0-181.871c-47.384 0-85.935 38.551-85.935 85.936s38.55 85.936 85.935 85.936 85.936-38.551 85.936-85.936-38.551-85.936-85.936-85.936z"/><path d="m166.56 282.854c-19.479 0-35.326-15.847-35.326-35.325s15.847-35.324 35.326-35.324c19.478 0 35.323 15.846 35.323 35.324s-15.846 35.325-35.323 35.325zm0-60.65c-13.965 0-25.326 11.36-25.326 25.324 0 13.965 11.361 25.325 25.326 25.325 13.963 0 25.323-11.36 25.323-25.325 0-13.964-11.36-25.324-25.323-25.324z"/></g></g></svg>