<svg id="Capa_1" enable-background="new 0 0 497 497" height="512" viewBox="0 0 497 497" width="512" xmlns="http://www.w3.org/2000/svg"><g><path d="m384.5 30h-317l-5 457 337-5v-55.677l-6.479-58.085 6.479-42.652v-280.586c0-8.284-6.716-15-15-15z" fill="#cde2ff"/><path d="m369.657 467-.157-15-302-422c-8.284 0-15 6.716-15 15v437c0 8.284 6.716 15 15 15h317c8.284 0 15-6.716 15-15h-44.843c8.285 0 15-6.716 15-15z" fill="#9ec8fc"/><path d="m399.5 325.586-30-86.232-41.214-17.583 71.214 204.552z" fill="#9ec8fc"/><path d="m354.5 0h-317l-5 457 337-5v-111.847l-12.806-106.653 12.806-40.749v-177.751c0-8.284-6.716-15-15-15z" fill="#edf6ff"/><path d="m369.5 192.751-30.706-38.375c-3.87-4.884-11.731-2.148-11.731 4.084v56.083c0 2.461.413 4.904 1.222 7.228l41.215 118.382z" fill="#cde2ff"/><g fill="#7e8b96"><path d="m309.5 414.5h-227c-4.142 0-7.5-3.358-7.5-7.5s3.358-7.5 7.5-7.5h227c4.142 0 7.5 3.358 7.5 7.5s-3.358 7.5-7.5 7.5z"/><path d="m309.5 369.5h-227c-4.142 0-7.5-3.358-7.5-7.5s3.358-7.5 7.5-7.5h227c4.142 0 7.5 3.358 7.5 7.5s-3.358 7.5-7.5 7.5z"/><path d="m309.5 324.5h-227c-4.142 0-7.5-3.358-7.5-7.5s3.358-7.5 7.5-7.5h227c4.142 0 7.5 3.358 7.5 7.5s-3.358 7.5-7.5 7.5z"/><path d="m289.5 279.5h-207c-4.142 0-7.5-3.358-7.5-7.5s3.358-7.5 7.5-7.5h207c4.142 0 7.5 3.358 7.5 7.5s-3.358 7.5-7.5 7.5z"/><path d="m309.5 234.5h-227c-4.142 0-7.5-3.358-7.5-7.5s3.358-7.5 7.5-7.5h227c4.142 0 7.5 3.358 7.5 7.5s-3.358 7.5-7.5 7.5z"/><path d="m309.5 189.5h-227c-4.142 0-7.5-3.358-7.5-7.5s3.358-7.5 7.5-7.5h227c4.142 0 7.5 3.358 7.5 7.5s-3.358 7.5-7.5 7.5z"/><path d="m82.5 144.5c-4.131 0-7.486-3.341-7.5-7.475-.014-4.142 3.333-7.511 7.475-7.525l149-.5c4.172-.018 7.511 3.333 7.525 7.475s-3.333 7.511-7.475 7.525l-149 .5c-.008 0-.017 0-.025 0z"/><path d="m269.975 69.5h-147.95c-4.142 0-7.5-3.358-7.5-7.5s3.358-7.5 7.5-7.5h147.95c4.142 0 7.5 3.358 7.5 7.5s-3.358 7.5-7.5 7.5z"/></g><path d="m37.5 437v-437c-8.284 0-15 6.716-15 15v437c0 8.284 6.716 15 15 15h317c8.284 0 15-6.716 15-15h-317c-8.284 0-15-6.716-15-15z" fill="#cde2ff"/><path d="m353.794 139.376-5 18.633 5 21.759 20.656-14.322z" fill="#7e8b96"/><path d="m342.064 143.46v33.261l11.731 3.047v-40.392c-3.871-4.884-11.731-2.148-11.731 4.084z" fill="#5f6c75"/><path d="m374.45 165.446-20.656 7.122-8.324 24.075c.074 3.796 13.3 12.201 13.3 12.201l33.384-19.086c-.809-2.324-2.003-4.495-3.531-6.424z" fill="#e0bba4"/><path d="m356.452 202.187c-1.011-2.903-2.584-6.97-2.658-10.766v-18.853l-11.731 4.153v22.822c0 2.461.413 4.904 1.222 7.228l15.484 2.073z" fill="#d8ab8c"/><path d="m356.452 202.187 75.576 237.318c1.655 4.752 9.313 4.746 20.202.956 16.144-5.621 21.783-15.573 21.783-15.573l-81.86-235.13z" fill="#ffd064"/><path d="m437.181 433.6-80.728-231.413-13.166 4.584 81.86 235.13c2.693 7.736 15.816 10.2 29.311 5.502 13.494-4.698 22.25-14.778 19.557-22.515 0 0-4.652 4.142-15.54 7.933-10.89 3.791-19.64 5.531-21.294.779z" fill="#ebb044"/></g></svg>