<svg id="Layer_1" enable-background="new 0 0 512 512" viewBox="0 0 512 512" xmlns="http://www.w3.org/2000/svg"><g clip-rule="evenodd" fill-rule="evenodd"><g><path d="m187.616 384.882h136.768v77.903h-136.768z" fill="#a79ba7"/><path d="m313.777 384.882h10.606v77.903h-10.606z" fill="#837683"/><path d="m108.165 495.998h295.67v-22.795c0-12.537-12.838-22.794-28.529-22.794h-238.612c-15.691 0-28.529 10.257-28.529 22.794z" fill="#eceff1"/><path d="m108.165 495.998h295.67v-22.795c0-7.451-4.535-14.096-11.507-18.262 1.567 2.816 2.441 5.928 2.441 9.196v22.795h-286.604z" fill="#d1d1d6"/><path d="m71.869 100.201h368.262c18.4 0 33.454 15.055 33.454 33.454v230.149c0 18.4-15.055 33.454-33.454 33.454h-368.262c-18.399 0-33.454-15.054-33.454-33.454v-230.149c0-18.4 15.054-33.454 33.454-33.454z" fill="#eceff1"/><path d="m458.792 105.928c8.908 6.027 14.793 16.223 14.793 27.727v230.149c0 18.4-15.055 33.454-33.454 33.454h-368.262c-11.504 0-21.7-5.885-27.726-14.793 5.339 3.612 11.765 5.727 18.66 5.727h368.262c18.399 0 33.454-15.055 33.454-33.454v-230.149c0-6.896-2.115-13.321-5.727-18.661z" fill="#d1d1d6"/><path d="m71.03 128.176h369.94c2.552 0 4.64 2.089 4.64 4.639v208.331h-379.22v-208.331c0-2.551 2.088-4.639 4.64-4.639z" fill="#d8ecfe"/><path d="m422.837 128.176h18.133c2.552 0 4.64 2.089 4.64 4.64v208.331h-18.133v-208.331c0-2.552-2.088-4.64-4.64-4.64z" fill="#c4e2ff"/></g><path d="m264 120.695v164.206h100.417v16h-216.834v-16h100.417v-164.206z" fill="#a79ba7"/><g><path d="m168.98 78.025c-13.389 5.483-22.885 18.673-22.885 33.976 0 20.181 16.51 36.691 36.691 36.691h146.428c20.18 0 36.691-16.51 36.691-36.691 0-16.872-11.542-31.176-27.12-35.414-2.871-26.529-25.337-47.184-52.629-47.184-6.271 0-12.287 1.09-17.869 3.092-10.553-10.21-24.925-16.495-40.768-16.495-32.385 0-58.639 26.254-58.639 58.639.001 1.138.036 2.266.1 3.386z" fill="#8ac9fe"/><path d="m349.325 142.646c9.968-6.577 16.58-17.875 16.58-30.645 0-16.872-11.542-31.176-27.12-35.414-2.871-26.529-25.337-47.184-52.629-47.184-6.271 0-12.287 1.09-17.869 3.092-10.553-10.21-24.925-16.495-40.768-16.495-18.877 0-35.669 8.923-46.394 22.778 9.913-7.674 22.353-12.244 35.861-12.244 15.842 0 30.215 6.285 40.768 16.495 5.582-2.002 11.598-3.092 17.869-3.092 27.292 0 49.759 20.654 52.63 47.183 15.578 4.238 27.119 18.542 27.119 35.414-.001 7.413-2.23 14.327-6.047 20.112z" fill="#60b7ff"/></g><g><path d="m147.583 300.901c-16.603-19.633-46.565-49.556-46.565-74.641 0-25.717 20.848-46.565 46.565-46.565s46.565 20.848 46.565 46.565c0 25.086-29.962 55.009-46.565 74.641z" fill="#ffe177"/><path d="m147.583 300.901c-1.409-1.666-2.915-3.407-4.49-5.212 16.984-19.465 42.075-46.472 42.075-69.428 0-24.202-18.465-44.09-42.075-46.349 1.478-.141 2.975-.216 4.49-.216 25.717 0 46.565 20.848 46.565 46.565 0 25.085-29.962 55.008-46.565 74.64z" fill="#ffd064"/><ellipse cx="147.583" cy="226.26" fill="#eceff1" rx="25.898" ry="25.898" transform="matrix(.973 -.23 .23 .973 -48.036 39.96)"/><path d="m147.583 200.362c1.171 0 2.324.079 3.454.23-12.671 1.689-22.445 12.537-22.445 25.669s9.775 23.98 22.445 25.669c-1.13.151-2.283.23-3.454.23-14.303 0-25.898-11.595-25.898-25.898-.001-14.305 11.594-25.9 25.898-25.9z" fill="#d1d1d6"/></g><g><path d="m364.417 300.901c-16.603-19.633-46.565-49.556-46.565-74.641 0-25.717 20.848-46.565 46.565-46.565s46.565 20.848 46.565 46.565c0 25.086-29.962 55.009-46.565 74.641z" fill="#fe646f"/><path d="m364.417 300.901c-1.409-1.666-2.915-3.407-4.49-5.212 16.984-19.465 42.075-46.472 42.075-69.428 0-24.202-18.465-44.09-42.075-46.349 1.478-.141 2.975-.216 4.49-.216 25.717 0 46.565 20.848 46.565 46.565 0 25.085-29.962 55.008-46.565 74.64z" fill="#fd4755"/><circle cx="364.417" cy="226.26" fill="#eceff1" r="25.898"/><path d="m364.417 200.362c1.171 0 2.324.079 3.453.23-12.671 1.689-22.445 12.537-22.445 25.669s9.775 23.98 22.445 25.669c-1.13.151-2.282.23-3.453.23-14.303 0-25.898-11.595-25.898-25.898-.001-14.305 11.594-25.9 25.898-25.9z" fill="#d1d1d6"/></g></g></svg>