<svg id="Capa_1" enable-background="new 0 0 510 510" height="512" viewBox="0 0 510 510" width="512" xmlns="http://www.w3.org/2000/svg" xmlns:xlink="http://www.w3.org/1999/xlink"><linearGradient id="SVGID_1_" gradientUnits="userSpaceOnUse" x1="141.411" x2="525.392" y1="160.106" y2="496.089"><stop offset="0" stop-color="#60b7ff"/><stop offset=".1649" stop-color="#5aabf6"/><stop offset=".4696" stop-color="#4a89e0"/><stop offset=".8776" stop-color="#2f52bc"/><stop offset="1" stop-color="#2740b0"/></linearGradient><linearGradient id="lg1"><stop offset="0" stop-color="#eaf9fa"/><stop offset="1" stop-color="#b3dafe"/></linearGradient><linearGradient id="SVGID_00000145031115216238408660000009384728642721181879_" gradientUnits="userSpaceOnUse" x1="143.932" x2="406.42" xlink:href="#lg1" y1="119.784" y2="382.272"/><linearGradient id="SVGID_00000008853591853130420840000013332237317320115883_" gradientUnits="userSpaceOnUse" x1="237.278" x2="503.278" xlink:href="#lg1" y1="27.599" y2="294.266"/><linearGradient id="SVGID_00000081633978737112150200000004906400435387558064_" gradientUnits="userSpaceOnUse" x1="112.875" x2="378.875" xlink:href="#lg1" y1="151.691" y2="418.357"/><linearGradient id="SVGID_00000037674483916585133650000006292038055022187160_" gradientUnits="userSpaceOnUse" x1="130.742" x2="396.742" xlink:href="#lg1" y1="133.869" y2="400.535"/><linearGradient id="SVGID_00000057147955484481710670000006185789398806547862_" gradientUnits="userSpaceOnUse" x1="41.937" x2="307.937" xlink:href="#lg1" y1="222.451" y2="489.118"/><linearGradient id="lg2"><stop offset="0" stop-color="#1f3596" stop-opacity="0"/><stop offset=".4068" stop-color="#1d3290" stop-opacity=".407"/><stop offset=".9508" stop-color="#192b7f" stop-opacity=".951"/><stop offset="1" stop-color="#192a7d"/></linearGradient><linearGradient id="SVGID_00000130616795839573708600000015852628938241586071_" gradientUnits="userSpaceOnUse" x1="267.09" x2="-17.994" xlink:href="#lg2" y1="287" y2="287"/><linearGradient id="SVGID_00000087396648184211141380000000133812686374113934_" gradientUnits="userSpaceOnUse" x1="255" x2="255" xlink:href="#lg2" y1="442" y2="527.094"/><linearGradient id="SVGID_00000048499639051627370170000014371965105687808947_" gradientUnits="userSpaceOnUse" x1="0" x2="86" y1="221.972" y2="221.972"><stop offset="0" stop-color="#60b7ff"/><stop offset="1" stop-color="#2740b0"/></linearGradient><g><path d="m503.154 41.33c-2.084 0-4.034.965-5.349 2.581-9.971 12.259-25.182 20.089-42.215 20.089h-389.542c-36.477 0-64.047 29.571-64.047 66.049l-2.001 313.903c0 36.477 29.571 66.048 66.049 66.048h389.541c30.05 0 54.41-24.36 54.41-54.41v-407.414c0-3.781-3.065-6.846-6.846-6.846z" fill="url(#SVGID_1_)"/><g><path d="m430.83 92.32h-258.58c-4.14 0-7.5 3.36-7.5 7.5v147.03h-40.78c-4.14 0-7.5 3.36-7.5 7.5v152.33c0 4.15 3.36 7.5 7.5 7.5h233.86c4.14 0 7.5-3.35 7.5-7.5v-40.78h65.5c4.14 0 7.5-3.35 7.5-7.5v-258.58c0-4.14-3.36-7.5-7.5-7.5zm-80.5 306.86h-66.52v-9.14h66.52zm0-24.14h-66.52v-9.14h66.52zm73-194.49h-65.189c-4.113 0-7.695 3.177-7.808 7.288-.117 4.247 3.287 7.712 7.497 7.712h65.5v155.35h-139.52v-96.55c0-4.142-3.358-7.5-7.5-7.5h-31.48c-4.142 0-7.5 3.358-7.5 7.5 0 4.142 3.358 7.5 7.5 7.5h23.98v137.33h-137.34v-137.33h67.93c4.142 0 7.5-3.358 7.5-7.5 0-4.142-3.358-7.5-7.5-7.5h-19.65v-139.53h89.06v30.717c0 3.813 2.739 7.212 6.522 7.691 4.576.58 8.478-2.976 8.478-7.438v-30.97h139.52z" fill="url(#SVGID_00000145031115216238408660000009384728642721181879_)"/><g><path d="m458.22 236.342c-4.496 0-8.14 3.645-8.14 8.14v9.226c0 4.496 3.645 8.14 8.14 8.14s8.14-3.645 8.14-8.14v-9.226c0-4.495-3.644-8.14-8.14-8.14z" fill="url(#SVGID_00000008853591853130420840000013332237317320115883_)"/><path d="m142.871 169.009c-4.496 0-8.14 3.645-8.14 8.14v9.226c0 4.496 3.644 8.14 8.14 8.14s8.14-3.645 8.14-8.14v-9.226c.001-4.495-3.644-8.14-8.14-8.14z" fill="url(#SVGID_00000081633978737112150200000004906400435387558064_)"/><path d="m301.541 292.342c-4.496 0-8.14 3.645-8.14 8.14v9.226c0 4.496 3.644 8.14 8.14 8.14s8.14-3.645 8.14-8.14v-9.226c0-4.495-3.645-8.14-8.14-8.14z" fill="url(#SVGID_00000037674483916585133650000006292038055022187160_)"/><path d="m198.761 366.903h-9.226c-4.496 0-8.14 3.644-8.14 8.14s3.645 8.14 8.14 8.14h9.226c4.496 0 8.14-3.644 8.14-8.14s-3.645-8.14-8.14-8.14z" fill="url(#SVGID_00000057147955484481710670000006185789398806547862_)"/></g><g fill="#2740b0"><path d="m234.467 436.908c0-4.496 3.645-8.14 8.14-8.14h9.226c4.496 0 8.14 3.644 8.14 8.14s-3.645 8.14-8.14 8.14h-9.226c-4.495 0-8.14-3.644-8.14-8.14z"/><path d="m214.064 445.048h-89.45c-4.496 0-8.14-3.644-8.14-8.14s3.645-8.14 8.14-8.14h89.45c4.496 0 8.14 3.645 8.14 8.14 0 4.496-3.644 8.14-8.14 8.14z"/><path d="m173.255 474.487h-48.641c-4.496 0-8.14-3.644-8.14-8.14s3.645-8.14 8.14-8.14h48.641c4.496 0 8.14 3.645 8.14 8.14 0 4.496-3.644 8.14-8.14 8.14z"/><path d="m430.19 474.487h-48.641c-4.496 0-8.14-3.644-8.14-8.14s3.645-8.14 8.14-8.14h48.641c4.496 0 8.14 3.645 8.14 8.14.001 4.496-3.644 8.14-8.14 8.14z"/></g></g><path d="m86 64h-19.952c-36.477 0-64.047 29.571-64.047 66.049l-2.001 313.903c0 36.477 29.571 66.048 66.049 66.048h389.541c20.684 0 38.67-11.542 47.874-28.536z" fill="url(#SVGID_00000130616795839573708600000015852628938241586071_)"/><path d="m0 327.6v116.351c0 36.478 29.571 66.049 66.049 66.049h389.541c30.05 0 54.41-24.36 54.41-54.41v-127.99z" fill="url(#SVGID_00000087396648184211141380000000133812686374113934_)"/><g><path d="m66.048 377.903h.209c10.856.034 19.743-8.581 19.743-19.436v-339.015c0-10.62-8.519-19.318-19.138-19.447-.271-.003-.542-.005-.813-.005-36.478 0-66.049 29.571-66.049 66.048v377.896c.004-36.474 29.573-66.041 66.048-66.041z" fill="url(#SVGID_00000048499639051627370170000014371965105687808947_)"/></g></g></svg>