<svg enable-background="new 0 0 512 512" height="512" viewBox="0 0 512 512" width="512" xmlns="http://www.w3.org/2000/svg"><g id="_x31_2_Sale"><g><path d="m309.266 139.129-79.603-59.834c-19.558-14.761-46.496-14.761-66.054 0l-79.602 59.834c-13.812 10.385-21.93 26.675-21.93 43.913v265.746c0 30.365 24.566 54.984 54.931 54.984h159.205c30.365 0 54.984-24.619 54.984-54.984v-265.746c0-17.238-8.119-33.528-21.931-43.913zm-112.603 53.719c-14.603 0-26.358-11.756-26.358-26.306s11.756-26.306 26.358-26.306c14.497 0 26.253 11.756 26.253 26.306 0 14.549-11.756 26.306-26.253 26.306z" fill="#d7e9ff"/><path d="m110.8 298.453v135.549c0 11.489 9.313 20.802 20.802 20.802h130.043c11.489 0 20.802-9.313 20.802-20.802v-135.549c0-11.489-9.313-20.802-20.802-20.802h-130.043c-11.488 0-20.802 9.313-20.802 20.802z" fill="#94c1ff"/><g fill="#116fff"><path d="m62.077 222.37c2.911 0 5.272-2.36 5.272-5.272v-34.055c0-15.524 7.411-30.366 19.802-39.682 30.307-22.536 49.129-36.848 61.585-46.318 20.976-15.949 22.716-17.221 28.948-19.777 2.692-1.107 3.98-4.185 2.875-6.88-1.107-2.692-4.178-3.972-6.88-2.875-7.655 3.143-10.35 5.192-31.324 21.141-12.438 9.457-31.231 23.746-61.518 46.264-15.048 11.316-24.031 29.306-24.031 48.127v34.055c0 2.911 2.36 5.272 5.271 5.272z"/><path d="m312.411 134.9c-30.418-22.629-49.25-36.935-61.711-46.403-21.228-16.127-23.45-17.81-30.788-20.824-2.695-1.109-5.774.18-6.878 2.873-1.107 2.692.18 5.774 2.873 6.878 6.064 2.492 7.753 3.774 28.415 19.47 12.479 9.478 31.337 23.805 61.775 46.449 12.417 9.334 19.828 24.176 19.828 39.7v265.744c0 27.411-22.299 49.713-49.71 49.713h-159.207c-27.383 0-49.659-22.302-49.659-49.713v-115.501c0-2.911-2.36-5.272-5.272-5.272-2.911 0-5.272 2.36-5.272 5.272v115.501c0 33.226 27.007 60.256 60.202 60.256h159.206c33.224 0 60.254-27.03 60.254-60.256v-265.744c.001-18.821-8.985-36.814-24.056-48.143z"/><path d="m62.077 282.994c2.911 0 5.272-2.36 5.272-5.272v-35.267c0-2.911-2.36-5.272-5.272-5.272-2.911 0-5.272 2.36-5.272 5.272v35.267c.001 2.912 2.361 5.272 5.272 5.272z"/><path d="m105.528 298.452v135.55c0 14.379 11.697 26.075 26.075 26.075h130.042c14.379 0 26.075-11.697 26.075-26.075v-135.55c0-14.376-11.697-26.073-26.075-26.073h-130.042c-14.379 0-26.075 11.696-26.075 26.073zm10.543 0c0-8.564 6.968-15.529 15.532-15.529h130.042c8.564 0 15.532 6.965 15.532 15.529v135.55c0 8.564-6.968 15.532-15.532 15.532h-130.042c-8.564 0-15.532-6.968-15.532-15.532z"/><path d="m155.915 327.165h81.418c2.911 0 5.272-2.36 5.272-5.272s-2.36-5.272-5.272-5.272h-81.418c-2.911 0-5.272 2.36-5.272 5.272s2.361 5.272 5.272 5.272z"/><path d="m155.915 371.498h81.418c2.911 0 5.272-2.36 5.272-5.272 0-2.911-2.36-5.272-5.272-5.272h-81.418c-2.911 0-5.272 2.36-5.272 5.272s2.361 5.272 5.272 5.272z"/><path d="m155.915 415.834h81.418c2.911 0 5.272-2.36 5.272-5.272 0-2.911-2.36-5.272-5.272-5.272h-81.418c-2.911 0-5.272 2.36-5.272 5.272s2.361 5.272 5.272 5.272z"/><path d="m449.923 280.732c-34.691 0-62.913-28.225-62.913-62.915v-141.402c0-40.506-32.953-73.459-73.459-73.459h-48.722c-40.503 0-73.456 32.953-73.456 73.459v59.029c-14.91 2.518-26.315 15.474-26.315 31.074 0 17.416 14.17 31.586 31.586 31.586 17.396 0 31.548-14.17 31.548-31.586 0-15.598-11.387-28.552-26.276-31.073v-59.03c0-34.691 28.222-62.915 62.913-62.915h48.722c34.691 0 62.915 28.225 62.915 62.915v141.401c0 40.506 32.953 73.459 73.456 73.459 2.911 0 5.272-2.36 5.272-5.272 0-2.911-2.36-5.271-5.271-5.271zm-232.274-114.214c0 11.604-9.424 21.043-21.004 21.043-11.604 0-21.043-9.439-21.043-21.043 0-11.583 9.439-21.007 21.043-21.007 11.58 0 21.004 9.423 21.004 21.007z"/></g></g></g></svg>