
        <svg xmlns="http://www.w3.org/2000/svg" xmlns:xlink="http://www.w3.org/1999/xlink" version="1.1" width="3161.9745468569226" height="1834.2098270398005" viewBox="0 0 3161.9745468569226 1834.2098270398005">
			
			<g transform="scale(8.098727342846123) translate(10, 10)">
				<defs id="SvgjsDefs2506"/><g id="SvgjsG2507" featureKey="symbolFeature-0" transform="matrix(4.029688431170348,0,0,4.029688431170348,13,-0.08067247347557825)" fill="#000">    <title xmlns="http://www.w3.org/2000/svg">Asset 44LETTERS5</title>    <g xmlns="http://www.w3.org/2000/svg" id="Page-1" stroke="none" stroke-width="1" fill-rule="evenodd">        <g id="Artboard" transform="translate(-1847.000000, -645.000000)" fill-rule="nonzero">            <g id="Asset-44LETTERS5" transform="translate(1847.000000, 645.020000)">                <polygon id="Path" points="11.49 0 0 6.56 0 17.75 7.5 22.12 7.5 50.24 19.24 43.41 19.24 15.18 11.49 10.78 11.49 2.57 35.73 16.63 35.73 24.8 26.37 19.39 26.37 33.15 38.11 26.4 38.11 15.4"/>            </g>        </g>    </g></g><g id="SvgjsG2508" featureKey="nameFeature-0" transform="matrix(2.9732168304291746,0,0,2.9732168304291746,170.67000032565753,23.53746963788072)" fill="#000"><path d="M6.68 12.600000000000001 l0 8.96 c0.8 -1.04 3 -2.44 5.88 -2.44 c4.8 0 7.92 3.32 7.92 8.28 l0 12.6 l-5.52 0 l0 -11.64 c0 -2.44 -1.4 -4.12 -3.76 -4.12 c-2.72 0 -4.52 1.72 -4.52 4.56 l0 11.2 l-5.56 0 l0 -27.4 l5.56 0 z M27.462 40 l-5.6 0 l0 -20.52 l5.56 0 l0 2.8 c1.36 -1.88 3.4 -3.08 5.96 -3.08 l0 5.6 c-4.08 0 -5.92 2.28 -5.92 5.84 l0 9.36 z M40.083999999999996 17.72 l-5.56 0 l0 -5.12 l5.56 0 l0 5.12 z M40.083999999999996 40 l-5.56 0 l0 -20.52 l5.56 0 l0 20.52 z M42.025999999999996 40 l0 -27.4 l11.2 0 c8.44 0 13.96 6 13.96 13.56 c0 7.72 -5.76 13.84 -14.28 13.84 l-10.88 0 z M52.906 18.28 l-4.68 0 l0 16.04 l4.88 0 c4.44 0 7.84 -3.44 7.84 -8.08 c0 -4.56 -3.4 -7.96 -8.04 -7.96 z"/></g>
			</g>
		</svg>
	